<svg width="884" height="884" viewBox="0 0 884 884" fill="none" xmlns="http://www.w3.org/2000/svg">
<rect width="884" height="884" rx="186" fill="black"/>
<rect x="442" y="330" width="216" height="216" rx="108" fill="#1ABCFE"/>
<path d="M226 438C226 378.353 274.353 330 334 330H442V546H334C274.353 546 226 497.647 226 438V438Z" fill="#A259FF"/>
<path d="M226 654C226 594.353 274.353 546 334 546H442V654C442 713.647 393.647 762 334 762V762C274.353 762 226 713.647 226 654V654Z" fill="#0ACF83"/>
<path d="M226 222C226 162.353 274.353 114 334 114H442V330H334C274.353 330 226 281.647 226 222V222Z" fill="#F24E1E"/>
<path d="M442 114H550C609.647 114 658 162.353 658 222V222C658 281.647 609.647 330 550 330H442V114Z" fill="#FF7262"/>
</svg>
